<svg width="265" height="64" viewBox="0 0 265 64" fill="none" xmlns="http://www.w3.org/2000/svg">
<mask id="mask0_1387_96270" style="mask-type:luminance" maskUnits="userSpaceOnUse" x="0" y="0" width="265" height="64">
<path d="M265 0.182617H0.148682V63.8803H265V0.182617Z" fill="white"/>
</mask>
<g mask="url(#mask0_1387_96270)">
<path d="M204.065 40.8674V40.8317C204.065 34.8485 200.974 31.0778 196.081 31.0778C191.189 31.0778 188.08 34.8307 188.08 40.8317V40.8674C188.08 46.8684 191.189 50.6391 196.081 50.6391C200.974 50.6391 204.065 46.8149 204.065 40.8674ZM184.013 40.8674V40.8317C184.013 32.648 188.674 27.5391 196.087 27.5391C203.501 27.5391 208.161 32.6658 208.161 40.8317V40.8674C208.161 49.0511 203.536 54.1779 196.087 54.1779C188.638 54.1779 184.013 49.069 184.013 40.8674Z" fill="#F87146"/>
<path d="M231.085 40.8674V40.8317C231.085 34.8485 227.994 31.0778 223.101 31.0778C218.209 31.0778 215.099 34.8307 215.099 40.8317V40.8674C215.099 46.8684 218.209 50.6391 223.101 50.6391C227.994 50.6391 231.085 46.8149 231.085 40.8674ZM211.033 40.8674V40.8317C211.033 32.648 215.694 27.5391 223.107 27.5391C230.52 27.5391 235.181 32.6658 235.181 40.8317V40.8674C235.181 49.0511 230.556 54.1779 223.107 54.1779C215.658 54.1779 211.033 49.069 211.033 40.8674Z" fill="#F87146"/>
<path d="M209.476 24.9465C204.898 24.9465 200.321 24.9465 195.743 24.9465C194.881 24.9465 194.435 24.7145 194.489 23.8224C194.578 22.3058 194.507 20.7832 194.542 19.2607C194.56 18.5351 194.304 18.1723 193.413 18.0474C191.492 17.7798 189.715 17.1434 188.163 16.0669C184.174 13.2953 184.335 8.87635 188.526 6.33677C191.487 4.54658 194.774 4.05889 198.27 4.49306C198.894 4.57037 199.334 4.49305 199.708 4.05294C202.699 0.597445 206.824 -0.16978 211.408 0.300072C214.529 0.621236 217.234 1.68583 219.101 4.05888C219.428 4.47521 219.921 4.42763 220.408 4.40384C223.304 4.24326 226.11 4.48116 228.702 5.76582C230.176 6.49736 231.365 7.48465 232.191 8.78715C233.695 11.1661 232.881 14.0923 230.259 15.936C228.892 16.8995 227.37 17.6132 225.652 17.8749C224.522 18.0414 224.201 18.4994 224.267 19.4688C224.362 20.9854 224.249 22.508 224.308 24.0306C224.338 24.7383 224.053 24.8989 223.304 24.8989C218.69 24.8751 214.083 24.887 209.476 24.887V24.9405" fill="#F87146"/>
<path d="M196.097 34.7969C196.097 36.3254 194.855 37.5685 193.327 37.5685C191.799 37.5685 190.557 36.3314 190.557 34.7969C190.557 33.2625 191.793 32.0254 193.327 32.0254C194.861 32.0254 196.097 33.2625 196.097 34.7969Z" fill="#F87146"/>
<path d="M222.856 35.7217C222.856 37.2502 221.62 38.4933 220.086 38.4933C218.552 38.4933 217.315 37.2562 217.315 35.7217C217.315 34.1873 218.552 32.9502 220.086 32.9502C221.62 32.9502 222.856 34.1873 222.856 35.7217Z" fill="#F87146"/>
</g>
<path d="M18.6628 27.8701L13.2142 39.3846H13.0838L7.62932 27.8701H0.224243L9.66289 46.0465V55.5661H16.6352V46.0465L26.0738 27.8701H18.6628Z" fill="#F87146"/>
<mask id="mask1_1387_96270" style="mask-type:luminance" maskUnits="userSpaceOnUse" x="0" y="0" width="265" height="64">
<path d="M265 0.182617H0.148682V63.8803H265V0.182617Z" fill="white"/>
</mask>
<g mask="url(#mask1_1387_96270)">
<path d="M28.6976 45.7862V28.0508H35.6888V45.1201C35.6888 48.3198 37.401 50.2468 40.5458 50.2468C43.6907 50.2468 45.385 48.3198 45.385 45.1201V28.0508H52.3762V45.7862C52.3762 51.9597 47.751 56.0337 40.5339 56.0337C33.3168 56.0337 28.7095 51.9775 28.7095 45.7862" fill="#F87146"/>
</g>
<path d="M56.5388 27.8701H64.6052L71.4844 45.9686H71.5972L78.4824 27.8701H86.5428V55.5661H80.4055V38.2524H80.2512L73.5381 55.5661H69.5435L62.8364 38.2524H62.6821V55.5661H56.5388V27.8701Z" fill="#F87146"/>
<path d="M90.6986 27.8701H98.759L105.644 45.9686H105.757L112.642 27.8701H120.703V55.5661H114.559V38.2524H114.405L107.698 55.5661H103.703L96.9902 38.2524H96.8418V55.5661H90.6986V27.8701Z" fill="#F87146"/>
<path d="M132.91 46.0465L123.472 27.8701H130.877L136.331 39.3846H136.462L141.91 27.8701H149.321L139.883 46.0465V55.5661H132.91V46.0465Z" fill="#F87146"/>
<mask id="mask2_1387_96270" style="mask-type:luminance" maskUnits="userSpaceOnUse" x="0" y="0" width="265" height="64">
<path d="M264.851 0L0.00012207 0V63.6977H264.851V0Z" fill="white"/>
</mask>
<g mask="url(#mask2_1387_96270)">
<path d="M214.471 61.1488C215.488 60.0545 216.011 58.8412 216.296 57.5566C216.332 57.4019 216.362 57.2413 216.367 57.0808C216.373 56.825 216.219 56.6406 215.892 56.6169C215.565 56.599 215.375 56.7596 215.333 57.0153C215.244 57.622 215.077 58.2167 214.828 58.7877C214.251 60.114 213.336 61.2143 211.713 61.8506C211.059 62.1064 209.4 62.154 209.257 62.154C208.562 62.1242 207.866 62.0885 207.165 62.0529C207.165 62.0231 207.159 61.9874 207.153 61.9577C207.409 61.8923 207.658 61.8268 207.914 61.7674C210.773 61.0775 212.325 59.4835 212.824 57.1402C212.902 56.7953 212.943 56.4444 213.133 56.1173C213.663 55.1954 214.804 54.7077 216.046 54.8802C217.295 55.0586 218.02 55.7664 218.121 56.8488C218.139 57.0153 218.151 57.1521 218.151 57.3068C218.139 59.3586 216.712 60.7444 214.465 61.1369M222.622 55.9032C222.318 55.7366 222.057 55.8199 221.861 56.0518C221.73 56.2124 221.605 56.373 221.462 56.5336C220.743 57.3365 219.97 58.0978 218.953 58.8055C219.043 58.3535 219.132 57.9907 219.173 57.6279C219.328 56.2897 218.942 55.1359 217.438 54.3865C216.26 53.7977 214.465 53.8989 213.288 54.6066C212.254 55.2311 211.944 56.1411 211.748 57.1164C211.077 60.3995 206.267 62.3562 202.587 60.8277C199.983 59.7452 197.932 58.1394 196.297 56.1767C196.095 55.9329 195.869 55.7128 195.483 55.8972C195.067 56.0994 195.198 56.373 195.418 56.6406C197.433 59.1088 200.072 60.9823 203.461 62.1302C205.126 62.6952 207.266 62.9628 208.663 62.9866C209.127 62.9985 209.965 63.052 210.595 62.9866C214.055 62.6417 217.479 61.3808 220.113 59.1445C221.076 58.3238 221.979 57.4911 222.723 56.5395C222.907 56.3016 222.919 56.0756 222.616 55.9091" fill="#F87146"/>
<path d="M195.398 55.5441C195.987 55.2705 196.569 55.2705 196.7 55.5441C196.831 55.8236 196.456 56.2697 195.868 56.5432C195.279 56.8168 194.697 56.8168 194.566 56.5432C194.435 56.2637 194.81 55.8177 195.398 55.5381" fill="#F87146"/>
<path d="M222.723 55.6762C223.341 55.8844 223.757 56.2888 223.662 56.5802C223.561 56.8717 222.985 56.9371 222.372 56.7289C221.754 56.5208 221.338 56.1163 221.433 55.8249C221.528 55.5335 222.111 55.4681 222.723 55.6762Z" fill="#F87146"/>
</g>
<path d="M162.252 27.8701H179.787V32.0351H167.166V40.2298H178.7V44.2594H167.166V55.5661H162.246V27.8701H162.252Z" fill="#332C45"/>
<path d="M240.718 27.8701H250.945C259.292 27.8701 264.259 32.8587 264.259 41.6122V41.6534C264.259 50.4246 259.327 55.5661 250.945 55.5661H240.718V27.8701ZM250.421 51.3776C256.049 51.3776 259.155 47.9832 259.155 41.6652V41.624C259.155 35.4471 255.99 32.0469 250.421 32.0469H245.721V51.3717H250.421V51.3776Z" fill="#332C45"/>
</svg>
